<mxfile host="app.diagrams.net" modified="2022-09-14T17:31:54.916Z" agent="5.0 (Windows NT 10.0; Win64; x64) AppleWebKit/537.36 (KHTML, like Gecko) Chrome/104.0.5112.102 Safari/537.36 OPR/90.0.4480.100" etag="cKbRuN2aTLYPsYLzcooi" version="20.0.0" type="github">
  <diagram id="mka3S7IFxrEIThBtXexo" name="Page-1">
    <mxGraphModel dx="741" dy="739" grid="1" gridSize="10" guides="1" tooltips="1" connect="1" arrows="1" fold="1" page="1" pageScale="1" pageWidth="827" pageHeight="1169" math="0" shadow="0">
      <root>
        <mxCell id="0" />
        <mxCell id="1" parent="0" />
        <mxCell id="Fx-AXYcMBqd1Iruci4sI-7" style="edgeStyle=orthogonalEdgeStyle;rounded=0;orthogonalLoop=1;jettySize=auto;html=1;entryX=0.5;entryY=0;entryDx=0;entryDy=0;startArrow=classic;startFill=1;" edge="1" parent="1" source="Fx-AXYcMBqd1Iruci4sI-1" target="Fx-AXYcMBqd1Iruci4sI-3">
          <mxGeometry relative="1" as="geometry" />
        </mxCell>
        <mxCell id="Fx-AXYcMBqd1Iruci4sI-1" value="Main Menu" style="rounded=0;whiteSpace=wrap;html=1;" vertex="1" parent="1">
          <mxGeometry x="170" y="180" width="120" height="60" as="geometry" />
        </mxCell>
        <mxCell id="Fx-AXYcMBqd1Iruci4sI-12" style="edgeStyle=orthogonalEdgeStyle;rounded=0;orthogonalLoop=1;jettySize=auto;html=1;entryX=0.5;entryY=0;entryDx=0;entryDy=0;startArrow=classic;startFill=1;" edge="1" parent="1" source="Fx-AXYcMBqd1Iruci4sI-2" target="Fx-AXYcMBqd1Iruci4sI-1">
          <mxGeometry relative="1" as="geometry" />
        </mxCell>
        <mxCell id="Fx-AXYcMBqd1Iruci4sI-2" value="Options" style="rounded=0;whiteSpace=wrap;html=1;" vertex="1" parent="1">
          <mxGeometry x="340" y="90" width="120" height="60" as="geometry" />
        </mxCell>
        <mxCell id="Fx-AXYcMBqd1Iruci4sI-8" style="edgeStyle=orthogonalEdgeStyle;rounded=0;orthogonalLoop=1;jettySize=auto;html=1;entryX=0;entryY=0.5;entryDx=0;entryDy=0;" edge="1" parent="1" source="Fx-AXYcMBqd1Iruci4sI-3" target="Fx-AXYcMBqd1Iruci4sI-5">
          <mxGeometry relative="1" as="geometry" />
        </mxCell>
        <mxCell id="Fx-AXYcMBqd1Iruci4sI-3" value="Level Selector" style="rounded=0;whiteSpace=wrap;html=1;" vertex="1" parent="1">
          <mxGeometry x="170" y="280" width="120" height="60" as="geometry" />
        </mxCell>
        <mxCell id="Fx-AXYcMBqd1Iruci4sI-11" style="edgeStyle=orthogonalEdgeStyle;rounded=0;orthogonalLoop=1;jettySize=auto;html=1;entryX=0.5;entryY=1;entryDx=0;entryDy=0;startArrow=classic;startFill=1;" edge="1" parent="1" source="Fx-AXYcMBqd1Iruci4sI-4" target="Fx-AXYcMBqd1Iruci4sI-2">
          <mxGeometry relative="1" as="geometry" />
        </mxCell>
        <mxCell id="Fx-AXYcMBqd1Iruci4sI-13" style="edgeStyle=orthogonalEdgeStyle;rounded=0;orthogonalLoop=1;jettySize=auto;html=1;startArrow=none;startFill=0;" edge="1" parent="1" source="Fx-AXYcMBqd1Iruci4sI-4" target="Fx-AXYcMBqd1Iruci4sI-1">
          <mxGeometry relative="1" as="geometry" />
        </mxCell>
        <mxCell id="Fx-AXYcMBqd1Iruci4sI-4" value="Pause Menu" style="rounded=0;whiteSpace=wrap;html=1;" vertex="1" parent="1">
          <mxGeometry x="340" y="180" width="120" height="60" as="geometry" />
        </mxCell>
        <mxCell id="Fx-AXYcMBqd1Iruci4sI-10" style="edgeStyle=orthogonalEdgeStyle;rounded=0;orthogonalLoop=1;jettySize=auto;html=1;startArrow=classic;startFill=1;" edge="1" parent="1" source="Fx-AXYcMBqd1Iruci4sI-5" target="Fx-AXYcMBqd1Iruci4sI-4">
          <mxGeometry relative="1" as="geometry" />
        </mxCell>
        <mxCell id="Fx-AXYcMBqd1Iruci4sI-5" value="[PLAYING THE GAME]" style="rounded=0;whiteSpace=wrap;html=1;" vertex="1" parent="1">
          <mxGeometry x="340" y="280" width="120" height="60" as="geometry" />
        </mxCell>
      </root>
    </mxGraphModel>
  </diagram>
</mxfile>
